<svg class="thumb" width="1000" height="1000" viewBox="0,0,600,600" xmlns="http://www.w3.org/2000/svg" xmlns:inkscape="http://www.inkscape.org/namespaces/inkscape" xmlns:sodipodi="http://sodipodi.sourceforge.net/DTD/sodipodi-0.dtd" xmlns:xlink="http://www.w3.org/1999/xlink" xmlns:ns1="http://www.inkscape.org/namespaces/inkscape" xmlns:sketch="http://www.bohemiancoding.com/sketch/ns">
  <defs></defs>
  <g transform="matrix(0.5326,0,0,0.5326,-31.8974,234.0657)">
    <g transform="matrix(3.6289,0,0,3.6289,98.0684,0.4315)">
      <svg width="109.999" height="67.98799999999999" viewBox="-4.624,14.508999999999997,109.999,67.98799999999999">
        <defs>
          <linearGradient x1="0" y1="0.5" x2="1" y2="0.5" id="linearGradientSjz3epx3t4">
            <stop offset="0%" stop-color="#ffc04a"></stop>
            <stop offset="100%" stop-color="#ff6347"></stop>
          </linearGradient>
        </defs>
        <g></g>
        <g></g>
        <g></g>
        <g></g>
        <g>
          <path fill="url('#linearGradientSjz3epx3t4')" d="M96.897,37.513c1.921,0,3.478-1.558,3.478-3.479c0-1.92-1.557-3.478-3.478-3.478s-3.478,1.558-3.478,3.478  c0,0.422,0.079,0.825,0.217,1.2l-10.153,8.649l-12.864-7.567c0.073-0.297,0.116-0.607,0.116-0.927c0-2.142-1.736-3.878-3.878-3.878  c-0.869,0-1.668,0.289-2.314,0.772L52.92,23.054c0.054-0.22,0.086-0.448,0.086-0.684c0-1.581-1.281-2.861-2.861-2.861  s-2.861,1.281-2.861,2.861c0,0.729,0.275,1.393,0.724,1.898l-5.835,12.488c-0.26-0.045-0.526-0.074-0.8-0.074  c-0.86,0-1.662,0.239-2.351,0.647l-15.438-6.915c0.036-0.225,0.06-0.454,0.06-0.689c0-2.38-1.929-4.309-4.309-4.309  c-2.379,0-4.309,1.929-4.309,4.309s1.929,4.309,4.309,4.309c1.352,0,2.556-0.623,3.346-1.596l14.682,6.576  c-0.384,0.674-0.607,1.452-0.607,2.284c0,0.852,0.293,1.605,0.694,2.29l-8.233,8.237c-1.136-0.811-2.506-1.294-4.003-1.294  c-2.642,0-4.915,1.501-6.082,3.684l-0.096-0.032c-0.001,0.012-0.004,0.023-0.005,0.035L7.553,49.002  c0.016-0.134,0.025-0.271,0.025-0.409c0-1.989-1.612-3.601-3.601-3.601s-3.601,1.612-3.601,3.601s1.612,3.601,3.601,3.601  c1.054,0,1.999-0.455,2.657-1.177l11.723,5.329c-0.005,0.013-0.009,0.025-0.015,0.037l0.056,0.019  c-0.054,0.348-0.108,0.694-0.108,1.055c0,1.954,0.813,3.716,2.115,4.975l-0.017,0.013c0.004,0.005,0.008,0.01,0.012,0.014  l-5.973,8.802c-0.155-0.027-0.314-0.044-0.478-0.044c-1.479,0-2.678,1.198-2.678,2.678c0,1.479,1.199,2.678,2.678,2.678  c1.479,0,2.678-1.199,2.678-2.678c0-0.501-0.14-0.969-0.38-1.37l5.364-7.904l0.71-0.877c0.881,0.407,1.859,0.641,2.894,0.641  c1.902,0,3.629-0.771,4.883-2.016l6.993,4.991c-0.199,0.514-0.334,1.06-0.334,1.641c0,2.548,2.065,4.617,4.617,4.617  c2.159,0,3.965-1.483,4.471-3.482l15.916-4.923c0.977,1.815,2.893,3.05,5.099,3.05c1.273,0,2.447-0.417,3.403-1.114l7.12,6.611  c-0.038,0.193-0.059,0.393-0.059,0.597c0,1.734,1.406,3.14,3.14,3.14s3.139-1.405,3.139-3.14c0-1.733-1.405-3.139-3.139-3.139  c-0.707,0-1.358,0.236-1.883,0.631l-6.811-6.323c0.552-0.887,0.893-1.93,0.893-3.05c0-2.815-1.661-5.16-4.661-5.677V39.104  c1-0.172,1.082-0.478,1.513-0.878l13.332,7.848l11.179,15.655c-0.092,0.23-0.146,0.481-0.146,0.745c0,1.125,0.91,2.037,2.035,2.037  s2.037-0.912,2.037-2.037s-0.913-2.037-2.038-2.037c-0.03,0-0.06,0.003-0.09,0.005L85.094,45.422l9.931-8.459  C95.565,37.31,96.207,37.513,96.897,37.513z M61.07,62.474c0,0.21,0.013,0.416,0.035,0.62l-15.275,4.724  c-0.522-1.975-2.316-3.435-4.458-3.435c-1.123,0-2.114,0.451-2.913,1.113l-7.038-5.022c0.447-0.92,0.717-1.93,0.717-3.017  c0-1.492-0.487-2.871-1.29-3.999l8.233-8.237c0.686,0.401,1.438,0.694,2.291,0.694c1.642,0,3.079-0.857,3.897-2.147l17.222,14.914  C61.609,59.699,61.07,61.022,61.07,62.474z M66,56.797c-1,0.1-1.135,0.273-1.596,0.502l-18.36-15.846  c0.002-0.052-0.023-0.102-0.023-0.154c0-1.485-0.718-2.802-1.806-3.646l5.799-12.428c0.046,0.002,0.088,0.007,0.134,0.007  c0.53,0,1.023-0.147,1.449-0.399l11.621,9.229c-0.151,0.415-0.113,0.861-0.113,1.328c0,1.757,0.895,3.238,2.895,3.715V56.797z" stroke="none" style=""></path>
        </g>
      </svg>
    </g>
    <g transform="matrix(1.0872,0,0,1.0872,487.7653,69.8094)">
      <svg width="532.5000000000001" height="181" style="overflow: visible;">
        <defs>
          <linearGradient x1="0" y1="0.5" x2="1" y2="0.5" id="linearGradientSjz3epx3tg">
            <stop offset="0%" stop-color="#083b66"></stop>
            <stop offset="95.73%" stop-color="#4c96d7"></stop>
            <stop offset="100%" stop-color="#4c96d7"></stop>
          </linearGradient>
        </defs>
        <g transform="matrix(1,0,0,1,0,90.75)">
          <path d="M 60.6 0L 54.4-15L 21.9-15L 15.7 0L-0.9 0L 30.3-70L 46.3-70L 77.6 0L 60.6 0ZM 27.1-27.3L 49.3-27.3L 38.2-54.1L 27.1-27.3ZM 83.8 0L 83.8-74.2L 99.39999999999999-74.2L 99.39999999999999 0L 83.8 0ZM 154.6-53.8L 169.39999999999998-53.8L 169.39999999999998-9Q 169.39999999999998 5.8  161.7 13Q 154 20.2  139.2 20.2L 139.2 20.2Q 131.39999999999998 20.2  124.39999999999999 18.3Q 117.39999999999999 16.4  112.79999999999998 12.8L 112.79999999999998 12.8L 118.99999999999999 1.6Q 122.39999999999999 4.4  127.6 6.05Q 132.79999999999998 7.7  138 7.7L 138 7.7Q 146.1 7.7  149.95 4.05Q 153.79999999999998 0.4  153.79999999999998-7L 153.79999999999998-7L 153.79999999999998-9.3Q 147.7-2.6  136.79999999999998-2.6L 136.79999999999998-2.6Q 129.39999999999998-2.6  123.24999999999999-5.85Q 117.1-9.1  113.49999999999999-15Q 109.89999999999999-20.9  109.89999999999999-28.6L 109.89999999999999-28.6Q 109.89999999999999-36.3  113.49999999999999-42.2Q 117.1-48.1  123.24999999999999-51.35Q 129.39999999999998-54.6  136.79999999999998-54.6L 136.79999999999998-54.6Q 148.5-54.6  154.6-46.9L 154.6-46.9L 154.6-53.8ZM 139.89999999999998-15.4Q 146.1-15.4  150.04999999999998-19.05Q 154-22.7  154-28.6L 154-28.6Q 154-34.5  150.04999999999998-38.15Q 146.1-41.8  139.89999999999998-41.8L 139.89999999999998-41.8Q 133.7-41.8  129.7-38.15Q 125.69999999999999-34.5  125.69999999999999-28.6L 125.69999999999999-28.6Q 125.69999999999999-22.7  129.7-19.05Q 133.7-15.4  139.89999999999998-15.4L 139.89999999999998-15.4ZM 209.5 0.8Q 201.00000000000003 0.8  194.25000000000003-2.75Q 187.50000000000003-6.3  183.70000000000002-12.6Q 179.9-18.9  179.9-26.9L 179.9-26.9Q 179.9-34.9  183.70000000000002-41.2Q 187.50000000000003-47.5  194.25000000000003-51.05Q 201.00000000000003-54.6  209.5-54.6L 209.5-54.6Q 218-54.6  224.70000000000002-51.05Q 231.40000000000003-47.5  235.20000000000002-41.2Q 239-34.9  239-26.9L 239-26.9Q 239-18.9  235.20000000000002-12.6Q 231.40000000000003-6.3  224.70000000000002-2.75Q 218 0.8  209.5 0.8L 209.5 0.8ZM 209.5-12Q 215.5-12  219.35000000000002-16.05Q 223.20000000000002-20.1  223.20000000000002-26.9L 223.20000000000002-26.9Q 223.20000000000002-33.7  219.35000000000002-37.75Q 215.5-41.8  209.5-41.8L 209.5-41.8Q 203.50000000000003-41.8  199.60000000000002-37.75Q 195.70000000000002-33.7  195.70000000000002-26.9L 195.70000000000002-26.9Q 195.70000000000002-20.1  199.60000000000002-16.05Q 203.50000000000003-12  209.5-12L 209.5-12ZM 264.3-46.7Q 267.1-50.6  271.85-52.6Q 276.6-54.6  282.8-54.6L 282.8-54.6L 282.8-40.2Q 280.20000000000005-40.4  279.3-40.4L 279.3-40.4Q 272.6-40.4  268.8-36.65Q 265-32.9  265-25.4L 265-25.4L 265 0L 249.4 0L 249.4-53.8L 264.3-53.8L 264.3-46.7ZM 292.09999999999997 0L 292.09999999999997-53.8L 307.7-53.8L 307.7 0L 292.09999999999997 0ZM 299.9-61.3Q 295.59999999999997-61.3  292.9-63.8Q 290.2-66.3  290.2-70L 290.2-70Q 290.2-73.7  292.9-76.2Q 295.59999999999997-78.7  299.9-78.7L 299.9-78.7Q 304.2-78.7  306.9-76.3Q 309.59999999999997-73.9  309.59999999999997-70.3L 309.59999999999997-70.3Q 309.59999999999997-66.4  306.9-63.85Q 304.2-61.3  299.9-61.3L 299.9-61.3ZM 352.7-13.6L 356.9-2.6Q 354.6-0.9  351.25-0.05Q 347.9 0.8  344.2 0.8L 344.2 0.8Q 334.6 0.8  329.35-4.1Q 324.1-9  324.1-18.5L 324.1-18.5L 324.1-40.6L 315.8-40.6L 315.8-52.6L 324.1-52.6L 324.1-65.7L 339.7-65.7L 339.7-52.6L 353.1-52.6L 353.1-40.6L 339.7-40.6L 339.7-18.7Q 339.7-15.3  341.45-13.45Q 343.2-11.6  346.4-11.6L 346.4-11.6Q 350.1-11.6  352.7-13.6L 352.7-13.6ZM 398.3999999999999-54.6Q 408.3999999999999-54.6  414.54999999999995-48.6Q 420.69999999999993-42.6  420.69999999999993-30.8L 420.69999999999993-30.8L 420.69999999999993 0L 405.09999999999997 0L 405.09999999999997-28.4Q 405.09999999999997-34.8  402.29999999999995-37.95Q 399.49999999999994-41.1  394.19999999999993-41.1L 394.19999999999993-41.1Q 388.29999999999995-41.1  384.79999999999995-37.45Q 381.29999999999995-33.8  381.29999999999995-26.6L 381.29999999999995-26.6L 381.29999999999995 0L 365.69999999999993 0L 365.69999999999993-74.2L 381.29999999999995-74.2L 381.29999999999995-48.2Q 384.3999999999999-51.3  388.79999999999995-52.95Q 393.19999999999993-54.6  398.3999999999999-54.6L 398.3999999999999-54.6ZM 503.70000000000005-54.6Q 513.8000000000001-54.6  519.75-48.65Q 525.7-42.7  525.7-30.8L 525.7-30.8L 525.7 0L 510.1 0L 510.1-28.4Q 510.1-34.8  507.45000000000005-37.95Q 504.8-41.1  499.90000000000003-41.1L 499.90000000000003-41.1Q 494.40000000000003-41.1  491.20000000000005-37.55Q 488-34  488-27L 488-27L 488 0L 472.40000000000003 0L 472.40000000000003-28.4Q 472.40000000000003-41.1  462.20000000000005-41.1L 462.20000000000005-41.1Q 456.8-41.1  453.6-37.55Q 450.40000000000003-34  450.40000000000003-27L 450.40000000000003-27L 450.40000000000003 0L 434.8 0L 434.8-53.8L 449.70000000000005-53.8L 449.70000000000005-47.6Q 452.70000000000005-51  457.05-52.8Q 461.40000000000003-54.6  466.6-54.6L 466.6-54.6Q 472.3-54.6  476.90000000000003-52.35Q 481.5-50.1  484.3-45.8L 484.3-45.8Q 487.6-50  492.65000000000003-52.3Q 497.70000000000005-54.6  503.70000000000005-54.6L 503.70000000000005-54.6Z" data-textpath="Algorithm" data-text-anchor="middle" data-font-size="100" data-letterspacing="0" data-side="left" data-offset="0.5" data-dx="0" data-dy="0" data-xmlspace="preserve" data-href="" data-font="Montserrat" data-font-src="/Content/clientfonts/montserrat-bold.woff" data-font-scale="contain" transform="translate(0,0)" data-x="0" data-y="0" fill="url('#linearGradientSjz3epx3tg')"></path>
        </g>
      </svg>
    </g>
    <g transform="matrix(0.978,0,0,0.978,1076.669,76.7442)">
      <svg width="58.900000000000006" height="181" style="overflow: visible;">
        <defs>
          <linearGradient x1="0" y1="0.5" x2="1" y2="0.5" id="linearGradientSjz3epx3tk">
            <stop offset="0%" stop-color="#ff6347"></stop>
            <stop offset="100%" stop-color="#ff6347"></stop>
          </linearGradient>
        </defs>
        <g transform="matrix(1,0,0,1,0,90.75)">
          <path d="M 3.2-70L 54.6-70L 54.6-64.9L 25.3 0L 17.5 0L 46.3-63.6L 10.3-63.6L 10.3-50.5L 3.2-50.5L 3.2-70Z" data-textpath="7" data-text-anchor="middle" data-font-size="100" data-letterspacing="0" data-side="left" data-offset="0.5" data-dx="0" data-dy="0" data-xmlspace="preserve" data-href="" data-font="Montserrat" data-font-src="/Content/clientfonts/montserrat.woff" data-font-scale="contain" transform="translate(0,0)" data-x="0" data-y="0" fill="url('#linearGradientSjz3epx3tk')"></path>
        </g>
      </svg>
    </g>
  </g>
</svg>